# xmcd
#
# Track frame offsets:
#	150
#	13665
#	24287
#	39200
#	53567
#	63557
#	79177
#	95445
#	110535
#	121557
#	132485
#	146702
#	161940
#	176417
#	188180
#	209730
#	222167
#	236505
#
# Disc length: 3279
#
# Revision: 1
# Processed by: cddbd v1.5.1PL0 Copyright (c) Steve Scherf et al.
# Submitted via: ExactAudioCopy v0.90b3
# Normalized: r0:DSETVAR1,TDELIM( - )
#
DISCID=f90ccd12
DTITLE=Various Artist - Country duets
DYEAR=1900
DGENRE=Country
TTITLE0=Johnny Cash and June Carter - If were a carpenter
TTITLE1=Tammy Wynette and George Jones - Near you
TTITLE2=Kris Kristofferson and Rita Coolidge - We must have been out of our minds
TTITLE3=Charlie Rich and Janie Frickie - On mt knees
TTITLE4=David Houston and Barbara Mandrell - How can it be wrong
TTITLE5=Johnny Cash and Marty Robbins - Song of the patriot
TTITLE6=Merle Haggard and Janie Frickie - A place to fall apart
TTITLE7=Rosanne Cash and Rodney Crowell - It's such a small wold
TTITLE8=Dolly Parton and Kriss Kristofferon - Put off until tomorrow
TTITLE9=The Everly Brothers - Keep a lovin' me
TTITLE10=Sweethearts of the rodeo - So sad
TTITLE11=Mary Chapin Carpenter and Joe Diffie - Not too much to ask
TTITLE12=The O'Kanes - Just lovin' you
TTITLE13=Tammy Wynette and David Houston - Something stupid
TTITLE14=Willie Nelson and Merle Haggard - Pancho and Lefty
TTITLE15=Johnny Cash and June Carter - Jackson
TTITLE16=Kriss Kristofferson and Rita Coolidge - I'd rather be sorry
TTITLE17=Tammy Wynette and George Jones - Did you ever
EXTD=
EXTT0=
EXTT1=
EXTT2=
EXTT3=
EXTT4=
EXTT5=
EXTT6=
EXTT7=
EXTT8=
EXTT9=
EXTT10=
EXTT11=
EXTT12=
EXTT13=
EXTT14=
EXTT15=
EXTT16=
EXTT17=
PLAYORDER=
